<svg id="_x33_0" enable-background="new 0 0 64 64" height="512" viewBox="0 0 64 64" width="512" xmlns="http://www.w3.org/2000/svg" xmlns:xlink="http://www.w3.org/1999/xlink"><linearGradient id="SVGID_1_" gradientUnits="userSpaceOnUse" x1="32" x2="32" y1="63" y2="1"><stop offset="0" stop-color="#9f2fff"/><stop offset="1" stop-color="#0bb1d3"/></linearGradient><path d="m3 52.613v3.387c0 1.654 1.346 3 3 3h7v1c0 1.654 1.346 3 3 3h32c1.654 0 3-1.346 3-3v-1h7c1.654 0 3-1.346 3-3v-3.387c.686-.342 1.26-.895 1.618-1.613.25-.5.382-1.059.382-1.618v-21.382c0-10.908-7.542-16.266-11.109-17.73.065-.293.109-.593.109-.902v-1.281c0-1.562-1.133-2.856-2.598-3.059l.209-.622c.043-.127.073-.263.094-.423.087-.735-.145-1.454-.651-2.024-.542-.609-1.322-.959-2.139-.959h-29.743c-.841 0-1.643.359-2.201.984-.522.585-.763 1.325-.675 2.091.019.156.05.293.091.414l.183.545c-1.431.228-2.57 1.569-2.57 3.131v1.311c0 .274.032.542.083.804-3.576 1.479-11.083 6.839-11.083 17.72v21.382c0 .559.132 1.118.382 1.618.358.718.932 1.271 1.618 1.613zm2 3.387v-3h2v4h-1c-.552 0-1-.449-1-1zm4 1v-4h2.733c.462 1.462 1.017 2.7 1.267 3.228v.772zm6 3v-3h2v4h-1c-.552 0-1-.449-1-1zm8-3h2v4h-2zm-2 4h-2v-4h2zm6-4h2v4h-2zm4 0h2v4h-2zm4 0h2v4h-2zm4 0h2v4h-2zm4 0h2v4h-2zm2-2h-26v-4.741l4.589-8.259h16.822l4.589 8.259zm3 6h-1v-4h2v3c0 .551-.448 1-1 1zm2.998-4.767c.252-.531.807-1.771 1.269-3.233h2.733v4h-4.002zm7.002.767h-1v-4h2v3c0 .551-.448 1-1 1zm-8-48.913v1.281c0 1.069-.76 2.004-1.807 2.223l-10.437 2.183 10.69-6.872c.177.058.361.098.554.098.532 0 1 .508 1 1.087zm-18 6.444-10.707-11.531h21.414zm15.559-11.243c.087.097.185.256.158.476l-.355 1.061c-.05.148-.071.298-.079.448l-9.816 6.31 7.969-8.583h1.479c.243 0 .483.107.644.288zm-31.096.028c.177-.198.441-.316.709-.316h1.392l7.969 8.582-9.818-6.312c-.012-.118-.037-.237-.077-.355l-.357-1.075c-.026-.235.084-.415.182-.524zm-2.463 4.849c0-.599.486-1.165 1-1.165.2 0 .387-.037.565-.09l10.753 6.913-10.513-2.141c-1.045-.22-1.805-1.147-1.805-2.207zm-11 19.835c0-9.915 6.828-14.679 9.923-15.902.606.766 1.469 1.331 2.479 1.542l16.601 3.381 16.601-3.472c.975-.204 1.816-.74 2.418-1.471 3.067 1.186 9.978 5.946 9.978 15.922v21.382c0 .25-.059.5-.171.724-.275.551-.83.894-1.447.894h-6.598c.132-.677.216-1.356.216-2v-12c0-4.893.985-14.801.995-14.9l-1.99-.199c-.041.41-1.005 10.106-1.005 15.099v12c0 2.116-1.141 4.894-1.637 6h-2.363v-5.259l-5.411-9.741h-19.178l-5.411 9.741v5.259h-2.363c-.496-1.107-1.637-3.885-1.637-6v-12c0-4.993-.964-14.689-1.005-15.1l-1.99.199c.01.1.995 10.007.995 14.901v12c0 .644.084 1.323.216 2h-6.598c-.617 0-1.172-.343-1.447-.895-.112-.223-.171-.473-.171-.723zm17-2h-2v-.9c0-1.709 1.391-3.1 3.1-3.1 1.6 0 2.926 1.2 3.085 2.791l.81 7.584c.092.93.86 1.625 1.788 1.625.887 0 1.642-.652 1.775-1.524l.062-4.501c.119-.949.763-1.71 1.679-1.985.914-.276 1.869.005 2.493.731l3.484 4.066c.293.339.912.209 1.048-.21l1.232-8.925c.39-1.562 1.787-2.652 3.396-2.652h.548c1.93 0 3.5 1.57 3.5 3.5s-1.57 3.5-3.5 3.5h-.5v-2h.5c.827 0 1.5-.673 1.5-1.5s-.673-1.5-1.5-1.5h-.548c-.674 0-1.261.446-1.443 1.09l-1.233 8.931c-.292 1.166-1.334 1.979-2.535 1.979-.763 0-1.485-.333-1.982-.912l-3.485-4.066c-.142-.164-.31-.143-.399-.117-.083.025-.223.094-.263.279l-.062 4.491c-.237 1.895-1.857 3.325-3.767 3.325-1.96 0-3.584-1.47-3.778-3.419l-.81-7.584c-.057-.571-.528-.997-1.095-.997-.606 0-1.1.493-1.1 1.1z" fill="url(#SVGID_1_)"/></svg>