<svg height="512" viewBox="0 0 512 512" width="512" xmlns="http://www.w3.org/2000/svg" xmlns:xlink="http://www.w3.org/1999/xlink"><linearGradient id="linear-gradient" gradientUnits="userSpaceOnUse" x1="77.844" x2="434.156" y1="441.158" y2="84.845"><stop offset="0" stop-color="#41dfd0"/><stop offset="1" stop-color="#ee83ef"/></linearGradient><g id="gradient"><path d="m43.76 198.784 64 40a8 8 0 0 0 11.1-2.668l9.14-15.234v267.118a8 8 0 0 0 8 8h240a8 8 0 0 0 8-8v-267.118l9.14 15.234a8 8 0 0 0 11.1 2.668l64-40a8 8 0 0 0 3.188-9.755l-40.36-100.9a56.251 56.251 0 0 0 -31.2-31.2l-20.761-8.3s-73.432-32.449-73.456-32.454c-.255-.053-99.866.136-100.1.212-.044.014-72.662 32.242-72.662 32.242l-20.761 8.305a56.254 56.254 0 0 0 -31.2 31.2l-40.36 100.9a8 8 0 0 0 3.192 9.75zm324.24 281.216h-224v-16h224zm-56-443.69 15.914 7.073a71.993 71.993 0 0 1 -143.828 0l15.914-7.073v3.69a56 56 0 0 0 112 0zm-16-4.31v8a40 40 0 0 1 -80 0v-8zm-200.212 62.071a40.177 40.177 0 0 1 22.283-22.283l20.9-8.36c.093-.037.186-.076.278-.117l29.351-13.046a88 88 0 0 0 174.8 0l29.353 13.046c.092.041.185.08.278.117l20.9 8.36a40.177 40.177 0 0 1 22.283 22.283l37.876 94.69-51.422 32.139-10.045-16.742 35.493-21.3a8 8 0 1 0 -8.232-13.72l-35.493 21.3-1.531-2.552a8 8 0 0 0 -14.86 4.114v256h-224v-256a8 8 0 0 0 -14.86-4.116l-1.531 2.552-35.493-21.3a8 8 0 1 0 -8.232 13.72l35.493 21.3-10.045 16.744-51.42-32.137z" fill="url(#linear-gradient)"/></g></svg>